<?xml version="1.0" encoding="UTF-8" standalone="no"?>
<!DOCTYPE svg PUBLIC "-//W3C//DTD SVG 1.0//EN" "http://www.w3.org/TR/2001/REC-SVG-20010904/DTD/svg10.dtd">
<!-- Generated by Microsoft Visio 11.0, SVG Export, v1.0 git-workflows.svg Page-2 -->
<svg xmlns="http://www.w3.org/2000/svg" xmlns:v="http://schemas.microsoft.com/visio/2003/SVGExtensions/" width="11in"
		height="8.5in" viewBox="0 0 792 612" xml:space="preserve" color-interpolation-filters="sRGB" class="st15">
	<v:documentProperties v:langID="1033" v:viewMarkup="false"/>

	<style type="text/css">
	<![CDATA[
		.st1 {stroke:#4677bf;stroke-dasharray:1.68,1.2;stroke-linecap:round;stroke-linejoin:round;stroke-width:0.24}
		.st2 {fill:#00ffff}
		.st3 {stroke:#000000;stroke-linecap:round;stroke-linejoin:round;stroke-width:0.72}
		.st4 {fill:#000000;font-family:Arial;font-size:1.16666em}
		.st5 {fill:#e6e6e6}
		.st6 {font-size:1em}
		.st7 {fill:#66ff66}
		.st8 {fill:#ffff66}
		.st9 {fill:#00ffff;stroke:#000000;stroke-linecap:round;stroke-linejoin:round;stroke-width:0.24}
		.st10 {fill:#66ff66;stroke:#000000;stroke-linecap:round;stroke-linejoin:round;stroke-width:0.24}
		.st11 {fill:#ffff66;stroke:#000000;stroke-linecap:round;stroke-linejoin:round;stroke-width:0.24}
		.st12 {fill:#ff5050;stroke:#000000;stroke-linecap:round;stroke-linejoin:round;stroke-width:0.24}
		.st13 {fill:#e6e6e6;stroke:#000000;stroke-linecap:round;stroke-linejoin:round;stroke-width:0.24}
		.st14 {fill:#000000;font-family:Arial;font-size:0.666664em}
		.st15 {fill:none;fill-rule:evenodd;font-size:12;overflow:visible;stroke-linecap:square;stroke-miterlimit:3}
	]]>
	</style>

	<g v:mID="5" v:index="2" v:groupContext="foregroundPage">
		<title>Page-2</title>
		<v:pageProperties v:drawingScale="1" v:pageScale="1" v:drawingUnits="0" v:shadowOffsetX="9" v:shadowOffsetY="-9"/>
		<v:layer v:name="Network" v:index="0"/>
		<v:layer v:name="Flowchart" v:index="1"/>
		<g id="shape11-1" v:mID="11" v:groupContext="shape" transform="translate(51.75,575.55) rotate(-90)">
			<title>Constraint Connector.12</title>
			<v:userDefs>
				<v:ud v:nameU="visVersion" v:val="VT0(11):26"/>
			</v:userDefs>
			<path d="M0 612 L540 612" class="st1"/>
		</g>
		<g id="shape10-4" v:mID="10" v:groupContext="shape" transform="translate(-155.25,575.55) rotate(-90)">
			<title>Constraint Connector.10</title>
			<v:userDefs>
				<v:ud v:nameU="visVersion" v:val="VT0(11):26"/>
			</v:userDefs>
			<path d="M0 612 L540 612" class="st1"/>
		</g>
		<g id="shape9-7" v:mID="9" v:groupContext="shape" transform="translate(-479.25,575.55) rotate(-90)">
			<title>Constraint Connector</title>
			<v:userDefs>
				<v:ud v:nameU="visVersion" v:val="VT0(11):26"/>
			</v:userDefs>
			<path d="M0 612 L540 612" class="st1"/>
		</g>
		<g id="shape17-10" v:mID="17" v:groupContext="shape" transform="translate(-315.088,577.085) rotate(-90.1437)">
			<title>Constraint Connector.18</title>
			<v:userDefs>
				<v:ud v:nameU="visVersion" v:val="VT0(11):26"/>
			</v:userDefs>
			<path d="M0 612 L143.55 612" class="st1"/>
		</g>
		<g id="shape20-13" v:mID="20" v:groupContext="shape" v:layerMember="0" transform="translate(265.725,-342.45)">
			<title>Datastore.20</title>
			<desc>Stash</desc>
			<v:custProps>
				<v:cp v:nameU="Manufacturer" v:lbl="Manufacturer" v:type="0" v:sortKey="1" v:invis="false" v:ask="false"
						v:langID="1033" v:val="VT4()"/>
				<v:cp v:nameU="ProductNumber" v:lbl="Product Number" v:type="0" v:sortKey="1" v:invis="false" v:ask="false"
						v:langID="1033" v:val="VT4()"/>
				<v:cp v:nameU="PartNumber" v:lbl="Part Number" v:type="0" v:sortKey="1" v:invis="false" v:ask="false"
						v:langID="1033" v:val="VT4()"/>
				<v:cp v:nameU="ProductDescription" v:lbl="Product Description" v:type="0" v:sortKey="1" v:invis="false"
						v:ask="false" v:langID="1033" v:val="VT4()"/>
				<v:cp v:nameU="AssetNumber" v:lbl="Asset Number" v:type="0" v:sortKey="1" v:invis="false" v:ask="false"
						v:langID="1033" v:val="VT4()"/>
				<v:cp v:nameU="SerialNumber" v:lbl="Serial Number" v:type="0" v:sortKey="1" v:invis="false" v:ask="false"
						v:langID="1033" v:val="VT4()"/>
				<v:cp v:nameU="Location" v:lbl="Location" v:type="0" v:sortKey="1" v:invis="false" v:ask="false" v:langID="1033"
						v:val="VT4()"/>
				<v:cp v:nameU="Building" v:lbl="Building" v:type="0" v:sortKey="1" v:invis="false" v:ask="false" v:langID="1033"
						v:val="VT4()"/>
				<v:cp v:nameU="Room" v:lbl="Room" v:type="0" v:sortKey="1" v:invis="false" v:ask="false" v:langID="1033"
						v:val="VT4()"/>
				<v:cp v:nameU="Department" v:lbl="Department" v:type="0" v:sortKey="1" v:invis="false" v:ask="false"
						v:langID="1033" v:val="VT4()"/>
			</v:custProps>
			<v:userDefs>
				<v:ud v:nameU="visVersion" v:val="VT0(11):26"/>
			</v:userDefs>
			<v:textBlock v:margins="rect(0,0,0,0)"/>
			<v:textRect cx="30.825" cy="588.251" width="61.65" height="32.0856"/>
			<path d="M0 564.5 L0 604.29 A30.825 7.70625 -180 1 0 61.65 604.29 L61.65 564.5 A30.825 7.70625 -180 1 0 -0 564.5 Z"
					class="st2"/>
			<path d="M0 564.5 L0 604.29 A30.825 7.70625 -180 1 0 61.65 604.29 L61.65 564.5 A30.825 7.70625 -180 1 0 -0 564.5"
					class="st3"/>
			<path d="M0 564.5 A30.825 7.70625 -180 0 0 61.65 564.5" class="st3"/>
			<text x="12.93" y="592.45" class="st4" v:langID="1033"><v:paragraph v:horizAlign="1"/><v:tabList/>Stash</text>		</g>
		<g id="shape1-18" v:mID="1" v:groupContext="shape" v:layerMember="0" transform="translate(91.35,-381.133)">
			<title>Datastore.5</title>
			<desc>Working Directory</desc>
			<v:custProps>
				<v:cp v:nameU="Manufacturer" v:lbl="Manufacturer" v:type="0" v:sortKey="1" v:invis="false" v:ask="false"
						v:langID="1033" v:val="VT4()"/>
				<v:cp v:nameU="ProductNumber" v:lbl="Product Number" v:type="0" v:sortKey="1" v:invis="false" v:ask="false"
						v:langID="1033" v:val="VT4()"/>
				<v:cp v:nameU="PartNumber" v:lbl="Part Number" v:type="0" v:sortKey="1" v:invis="false" v:ask="false"
						v:langID="1033" v:val="VT4()"/>
				<v:cp v:nameU="ProductDescription" v:lbl="Product Description" v:type="0" v:sortKey="1" v:invis="false"
						v:ask="false" v:langID="1033" v:val="VT4()"/>
				<v:cp v:nameU="AssetNumber" v:lbl="Asset Number" v:type="0" v:sortKey="1" v:invis="false" v:ask="false"
						v:langID="1033" v:val="VT4()"/>
				<v:cp v:nameU="SerialNumber" v:lbl="Serial Number" v:type="0" v:sortKey="1" v:invis="false" v:ask="false"
						v:langID="1033" v:val="VT4()"/>
				<v:cp v:nameU="Location" v:lbl="Location" v:type="0" v:sortKey="1" v:invis="false" v:ask="false" v:langID="1033"
						v:val="VT4()"/>
				<v:cp v:nameU="Building" v:lbl="Building" v:type="0" v:sortKey="1" v:invis="false" v:ask="false" v:langID="1033"
						v:val="VT4()"/>
				<v:cp v:nameU="Room" v:lbl="Room" v:type="0" v:sortKey="1" v:invis="false" v:ask="false" v:langID="1033"
						v:val="VT4()"/>
				<v:cp v:nameU="Department" v:lbl="Department" v:type="0" v:sortKey="1" v:invis="false" v:ask="false"
						v:langID="1033" v:val="VT4()"/>
			</v:custProps>
			<v:userDefs>
				<v:ud v:nameU="visVersion" v:val="VT0(11):26"/>
			</v:userDefs>
			<v:textBlock v:margins="rect(0,0,0,0)"/>
			<v:textRect cx="43.2" cy="578.717" width="86.4" height="44.9667"/>
			<path d="M0 545.43 L0 601.2 A43.2 10.8 -180 1 0 86.4 601.2 L86.4 545.43 A43.2 10.8 -180 0 0 -0 545.43 Z" class="st5"/>
			<path d="M0 545.43 L0 601.2 A43.2 10.8 -180 1 0 86.4 601.2 L86.4 545.43 A43.2 10.8 -180 0 0 -0 545.43" class="st3"/>
			<path d="M0 545.43 A43.2 10.8 -180 0 0 86.4 545.43" class="st3"/>
			<text x="17.53" y="574.52" class="st4" v:langID="1033"><v:paragraph v:horizAlign="1"/><v:tabList/>Working<v:newlineChar/><tspan
						x="15.2" dy="1.2em" class="st6">Directory</tspan></text>		</g>
		<g id="shape2-24" v:mID="2" v:groupContext="shape" v:layerMember="0" transform="translate(253.35,-381.133)">
			<title>Datastore.1</title>
			<desc>Index</desc>
			<v:custProps>
				<v:cp v:nameU="Manufacturer" v:lbl="Manufacturer" v:type="0" v:sortKey="1" v:invis="false" v:ask="false"
						v:langID="1033" v:val="VT4()"/>
				<v:cp v:nameU="ProductNumber" v:lbl="Product Number" v:type="0" v:sortKey="1" v:invis="false" v:ask="false"
						v:langID="1033" v:val="VT4()"/>
				<v:cp v:nameU="PartNumber" v:lbl="Part Number" v:type="0" v:sortKey="1" v:invis="false" v:ask="false"
						v:langID="1033" v:val="VT4()"/>
				<v:cp v:nameU="ProductDescription" v:lbl="Product Description" v:type="0" v:sortKey="1" v:invis="false"
						v:ask="false" v:langID="1033" v:val="VT4()"/>
				<v:cp v:nameU="AssetNumber" v:lbl="Asset Number" v:type="0" v:sortKey="1" v:invis="false" v:ask="false"
						v:langID="1033" v:val="VT4()"/>
				<v:cp v:nameU="SerialNumber" v:lbl="Serial Number" v:type="0" v:sortKey="1" v:invis="false" v:ask="false"
						v:langID="1033" v:val="VT4()"/>
				<v:cp v:nameU="Location" v:lbl="Location" v:type="0" v:sortKey="1" v:invis="false" v:ask="false" v:langID="1033"
						v:val="VT4()"/>
				<v:cp v:nameU="Building" v:lbl="Building" v:type="0" v:sortKey="1" v:invis="false" v:ask="false" v:langID="1033"
						v:val="VT4()"/>
				<v:cp v:nameU="Room" v:lbl="Room" v:type="0" v:sortKey="1" v:invis="false" v:ask="false" v:langID="1033"
						v:val="VT4()"/>
				<v:cp v:nameU="Department" v:lbl="Department" v:type="0" v:sortKey="1" v:invis="false" v:ask="false"
						v:langID="1033" v:val="VT4()"/>
			</v:custProps>
			<v:userDefs>
				<v:ud v:nameU="visVersion" v:val="VT0(11):26"/>
			</v:userDefs>
			<v:textBlock v:margins="rect(0,0,0,0)"/>
			<v:textRect cx="43.2" cy="578.717" width="86.4" height="44.9667"/>
			<path d="M0 545.43 L0 601.2 A43.2 10.8 -180 1 0 86.4 601.2 L86.4 545.43 A43.2 10.8 -180 0 0 -0 545.43 Z" class="st2"/>
			<path d="M0 545.43 L0 601.2 A43.2 10.8 -180 1 0 86.4 601.2 L86.4 545.43 A43.2 10.8 -180 0 0 -0 545.43" class="st3"/>
			<path d="M0 545.43 A43.2 10.8 -180 0 0 86.4 545.43" class="st3"/>
			<text x="26.08" y="582.92" class="st4" v:langID="1033"><v:paragraph v:horizAlign="1"/><v:tabList/>Index</text>		</g>
		<g id="shape3-29" v:mID="3" v:groupContext="shape" v:layerMember="0" transform="translate(414,-381.133)">
			<title>Datastore.3</title>
			<desc>Local Repository</desc>
			<v:custProps>
				<v:cp v:nameU="Manufacturer" v:lbl="Manufacturer" v:type="0" v:sortKey="1" v:invis="false" v:ask="false"
						v:langID="1033" v:val="VT4()"/>
				<v:cp v:nameU="ProductNumber" v:lbl="Product Number" v:type="0" v:sortKey="1" v:invis="false" v:ask="false"
						v:langID="1033" v:val="VT4()"/>
				<v:cp v:nameU="PartNumber" v:lbl="Part Number" v:type="0" v:sortKey="1" v:invis="false" v:ask="false"
						v:langID="1033" v:val="VT4()"/>
				<v:cp v:nameU="ProductDescription" v:lbl="Product Description" v:type="0" v:sortKey="1" v:invis="false"
						v:ask="false" v:langID="1033" v:val="VT4()"/>
				<v:cp v:nameU="AssetNumber" v:lbl="Asset Number" v:type="0" v:sortKey="1" v:invis="false" v:ask="false"
						v:langID="1033" v:val="VT4()"/>
				<v:cp v:nameU="SerialNumber" v:lbl="Serial Number" v:type="0" v:sortKey="1" v:invis="false" v:ask="false"
						v:langID="1033" v:val="VT4()"/>
				<v:cp v:nameU="Location" v:lbl="Location" v:type="0" v:sortKey="1" v:invis="false" v:ask="false" v:langID="1033"
						v:val="VT4()"/>
				<v:cp v:nameU="Building" v:lbl="Building" v:type="0" v:sortKey="1" v:invis="false" v:ask="false" v:langID="1033"
						v:val="VT4()"/>
				<v:cp v:nameU="Room" v:lbl="Room" v:type="0" v:sortKey="1" v:invis="false" v:ask="false" v:langID="1033"
						v:val="VT4()"/>
				<v:cp v:nameU="Department" v:lbl="Department" v:type="0" v:sortKey="1" v:invis="false" v:ask="false"
						v:langID="1033" v:val="VT4()"/>
			</v:custProps>
			<v:userDefs>
				<v:ud v:nameU="visVersion" v:val="VT0(11):26"/>
			</v:userDefs>
			<v:textBlock v:margins="rect(0,0,0,0)"/>
			<v:textRect cx="43.2" cy="578.717" width="86.4" height="44.9667"/>
			<path d="M0 545.43 L0 601.2 A43.2 10.8 -180 1 0 86.4 601.2 L86.4 545.43 A43.2 10.8 -180 0 0 -0 545.43 Z" class="st7"/>
			<path d="M0 545.43 L0 601.2 A43.2 10.8 -180 1 0 86.4 601.2 L86.4 545.43 A43.2 10.8 -180 0 0 -0 545.43" class="st3"/>
			<path d="M0 545.43 A43.2 10.8 -180 0 0 86.4 545.43" class="st3"/>
			<text x="26.47" y="574.52" class="st4" v:langID="1033"><v:paragraph v:horizAlign="1"/><v:tabList/>Local <tspan x="9.74"
						dy="1.2em" class="st6">Repository</tspan></text>		</g>
		<g id="shape4-35" v:mID="4" v:groupContext="shape" v:layerMember="0" transform="translate(617.85,-381.133)">
			<title>Datastore.4</title>
			<desc>Remote Repoisotry</desc>
			<v:custProps>
				<v:cp v:nameU="Manufacturer" v:lbl="Manufacturer" v:type="0" v:sortKey="1" v:invis="false" v:ask="false"
						v:langID="1033" v:val="VT4()"/>
				<v:cp v:nameU="ProductNumber" v:lbl="Product Number" v:type="0" v:sortKey="1" v:invis="false" v:ask="false"
						v:langID="1033" v:val="VT4()"/>
				<v:cp v:nameU="PartNumber" v:lbl="Part Number" v:type="0" v:sortKey="1" v:invis="false" v:ask="false"
						v:langID="1033" v:val="VT4()"/>
				<v:cp v:nameU="ProductDescription" v:lbl="Product Description" v:type="0" v:sortKey="1" v:invis="false"
						v:ask="false" v:langID="1033" v:val="VT4()"/>
				<v:cp v:nameU="AssetNumber" v:lbl="Asset Number" v:type="0" v:sortKey="1" v:invis="false" v:ask="false"
						v:langID="1033" v:val="VT4()"/>
				<v:cp v:nameU="SerialNumber" v:lbl="Serial Number" v:type="0" v:sortKey="1" v:invis="false" v:ask="false"
						v:langID="1033" v:val="VT4()"/>
				<v:cp v:nameU="Location" v:lbl="Location" v:type="0" v:sortKey="1" v:invis="false" v:ask="false" v:langID="1033"
						v:val="VT4()"/>
				<v:cp v:nameU="Building" v:lbl="Building" v:type="0" v:sortKey="1" v:invis="false" v:ask="false" v:langID="1033"
						v:val="VT4()"/>
				<v:cp v:nameU="Room" v:lbl="Room" v:type="0" v:sortKey="1" v:invis="false" v:ask="false" v:langID="1033"
						v:val="VT4()"/>
				<v:cp v:nameU="Department" v:lbl="Department" v:type="0" v:sortKey="1" v:invis="false" v:ask="false"
						v:langID="1033" v:val="VT4()"/>
			</v:custProps>
			<v:userDefs>
				<v:ud v:nameU="visVersion" v:val="VT0(11):26"/>
			</v:userDefs>
			<v:textBlock v:margins="rect(0,0,0,0)"/>
			<v:textRect cx="43.2" cy="578.717" width="86.4" height="44.9667"/>
			<path d="M0 545.43 L0 601.2 A43.2 10.8 -180 1 0 86.4 601.2 L86.4 545.43 A43.2 10.8 -180 0 0 -0 545.43 Z" class="st8"/>
			<path d="M0 545.43 L0 601.2 A43.2 10.8 -180 1 0 86.4 601.2 L86.4 545.43 A43.2 10.8 -180 0 0 -0 545.43" class="st3"/>
			<path d="M0 545.43 A43.2 10.8 -180 0 0 86.4 545.43" class="st3"/>
			<text x="18.69" y="574.52" class="st4" v:langID="1033"><v:paragraph v:horizAlign="1"/><v:tabList/>Remote <tspan
						x="9.74" dy="1.2em" class="st6">Repoisotry</tspan></text>		</g>
		<g id="shape5-41" v:mID="5" v:groupContext="shape" transform="translate(294.75,-509.4) scale(-1,1)">
			<title>45 degree single</title>
			<desc>add -u</desc>
			<v:userDefs>
				<v:ud v:nameU="visVersion" v:val="VT0(11):26"/>
			</v:userDefs>
			<v:textBlock v:margins="rect(4,4,4,4)"/>
			<v:textRect cx="81" cy="594" width="162" height="36"/>
			<path d="M0 594 L18 576 L18 587.88 L162 587.88 L162 600.12 L18 600.12 L18 612 L0 594 Z" class="st9"/>
			<text x="-100.85" y="598.2" transform="scale(-1,1)" class="st4" v:langID="1033"><v:paragraph v:horizAlign="1"/><v:tabList/>add -u</text>		</g>
		<g id="shape6-44" v:mID="6" v:groupContext="shape" transform="translate(456.95,-508.499) scale(-1,1)">
			<title>45 degree single.6</title>
			<desc>commit</desc>
			<v:userDefs>
				<v:ud v:nameU="visVersion" v:val="VT0(11):26"/>
			</v:userDefs>
			<v:textBlock v:margins="rect(4,4,4,4)"/>
			<v:textRect cx="81" cy="594" width="162" height="36"/>
			<path d="M0 594 L18 576 L18 587.88 L162 587.88 L162 600.12 L18 600.12 L18 612 L0 594 Z" class="st10"/>
			<text x="-103.55" y="598.2" transform="scale(-1,1)" class="st4" v:langID="1033"><v:paragraph v:horizAlign="1"/><v:tabList/>commit</text>		</g>
		<g id="shape7-47" v:mID="7" v:groupContext="shape" transform="translate(663.75,-468) scale(-1,1)">
			<title>45 degree single.7</title>
			<desc>push</desc>
			<v:userDefs>
				<v:ud v:nameU="visVersion" v:val="VT0(11):26"/>
			</v:userDefs>
			<v:textBlock v:margins="rect(4,4,4,4)"/>
			<v:textRect cx="103.5" cy="594" width="207" height="36"/>
			<path d="M0 594 L18 576 L18 587.88 L207 587.88 L207 600.12 L18 600.12 L18 612 L0 594 Z" class="st11"/>
			<text x="-118.68" y="598.2" transform="scale(-1,1)" class="st4" v:langID="1033"><v:paragraph v:horizAlign="1"/><v:tabList/>push</text>		</g>
		<g id="shape8-50" v:mID="8" v:groupContext="shape" transform="translate(456.75,-540) scale(-1,1)">
			<title>45 degree single.8</title>
			<desc>commit -a</desc>
			<v:userDefs>
				<v:ud v:nameU="visVersion" v:val="VT0(11):26"/>
			</v:userDefs>
			<v:textBlock v:margins="rect(4,4,4,4)"/>
			<v:textRect cx="162" cy="594" width="324" height="36"/>
			<path d="M0 594 L18 576 L18 587.88 L324 587.88 L324 600.12 L18 600.12 L18 612 L0 594 Z" class="st10"/>
			<text x="-192.72" y="598.2" transform="scale(-1,1)" class="st4" v:langID="1033"><v:paragraph v:horizAlign="1"/><v:tabList/>commit -a</text>		</g>
		<g id="shape12-53" v:mID="12" v:groupContext="shape" transform="translate(132.75,891) scale(1,-1)">
			<title>45 degree single.12</title>
			<desc>pull, rebase or clone</desc>
			<v:userDefs>
				<v:ud v:nameU="visVersion" v:val="VT0(11):26"/>
			</v:userDefs>
			<v:textBlock v:margins="rect(4,4,4,4)"/>
			<v:textRect cx="265.5" cy="594" width="531" height="36"/>
			<path d="M0 594 L18 576 L18 587.88 L531 587.88 L531 600.12 L18 600.12 L18 612 L0 594 Z" class="st11"/>
			<text x="202.46" y="-589.8" transform="scale(1,-1)" class="st4" v:langID="1033"><v:paragraph v:horizAlign="1"/><v:tabList/>pull, rebase or clone</text>		</g>
		<g id="shape13-56" v:mID="13" v:groupContext="shape" transform="translate(456.75,936) scale(1,-1)">
			<title>45 degree single.13</title>
			<desc>fetch</desc>
			<v:userDefs>
				<v:ud v:nameU="visVersion" v:val="VT0(11):26"/>
			</v:userDefs>
			<v:textBlock v:margins="rect(4,4,4,4)"/>
			<v:textRect cx="103.5" cy="594" width="207" height="36"/>
			<path d="M0 594 L18 576 L18 587.88 L207 587.88 L207 600.12 L18 600.12 L18 612 L0 594 Z" class="st11"/>
			<text x="88.32" y="-589.8" transform="scale(1,-1)" class="st4" v:langID="1033"><v:paragraph v:horizAlign="1"/><v:tabList/>fetch</text>		</g>
		<g id="shape14-59" v:mID="14" v:groupContext="shape" transform="translate(132.75,933.3) scale(1,-1)">
			<title>45 degree single.14</title>
			<desc>rm --cached</desc>
			<v:userDefs>
				<v:ud v:nameU="visVersion" v:val="VT0(11):26"/>
			</v:userDefs>
			<v:textBlock v:margins="rect(4,4,4,4)"/>
			<v:textRect cx="81" cy="594" width="162" height="36"/>
			<path d="M0 594 L18 576 L18 587.88 L162 587.88 L162 600.12 L18 600.12 L18 612 L0 594 Z" class="st12"/>
			<text x="43.66" y="-589.8" transform="scale(1,-1)" class="st4" v:langID="1033"><v:paragraph v:horizAlign="1"/><v:tabList/>rm --cached</text>		</g>
		<g id="shape15-62" v:mID="15" v:groupContext="shape" transform="translate(132.75,981) scale(1,-1)">
			<title>45 degree single.16</title>
			<desc>merge, checkout HEAD</desc>
			<v:userDefs>
				<v:ud v:nameU="visVersion" v:val="VT0(11):26"/>
			</v:userDefs>
			<v:textBlock v:margins="rect(4,4,4,4)"/>
			<v:textRect cx="162" cy="594" width="324" height="36"/>
			<path d="M0 594 L18 576 L18 587.88 L324 587.88 L324 600.12 L18 600.12 L18 612 L0 594 Z" class="st12"/>
			<text x="88.86" y="-589.8" transform="scale(1,-1)" class="st4" v:langID="1033"><v:paragraph v:horizAlign="1"/><v:tabList/>merge, checkout HEAD</text>		</g>
		<g id="shape16-65" v:mID="16" v:groupContext="shape" v:layerMember="1" transform="translate(135.45,-180)">
			<title>Process</title>
			<desc>diff HEAD</desc>
			<v:custProps>
				<v:cp v:nameU="Cost" v:lbl="Cost" v:type="7" v:format="@" v:langID="1033"/>
				<v:cp v:nameU="Duration" v:lbl="Duration" v:type="2" v:langID="1033"/>
				<v:cp v:nameU="Resources" v:lbl="Resources" v:langID="1033"/>
			</v:custProps>
			<v:userDefs>
				<v:ud v:nameU="visVersion" v:val="VT0(11):26"/>
			</v:userDefs>
			<v:textBlock v:margins="rect(2,2,2,2)"/>
			<v:textRect cx="161.1" cy="603" width="322.2" height="18"/>
			<rect x="0" y="594" width="322.2" height="18" class="st13"/>
			<text x="130.37" y="607.2" class="st4" v:langID="1033"><v:paragraph v:horizAlign="1"/><v:tabList/>diff HEAD</text>		</g>
		<g id="shape18-68" v:mID="18" v:groupContext="shape" v:layerMember="1" transform="translate(137.25,-139.5)">
			<title>Process.18</title>
			<desc>diff</desc>
			<v:custProps>
				<v:cp v:nameU="Cost" v:lbl="Cost" v:type="7" v:format="@" v:langID="1033"/>
				<v:cp v:nameU="Duration" v:lbl="Duration" v:type="2" v:langID="1033"/>
				<v:cp v:nameU="Resources" v:lbl="Resources" v:langID="1033"/>
			</v:custProps>
			<v:userDefs>
				<v:ud v:nameU="visVersion" v:val="VT0(11):26"/>
			</v:userDefs>
			<v:textBlock v:margins="rect(2,2,2,2)"/>
			<v:textRect cx="79.65" cy="603" width="159.3" height="18"/>
			<rect x="0" y="594" width="159.3" height="18" class="st13"/>
			<text x="70.31" y="607.2" class="st4" v:langID="1033"><v:paragraph v:horizAlign="1"/><v:tabList/>diff</text>		</g>
		<g id="shape19-71" v:mID="19" v:groupContext="shape" v:layerMember="1" transform="translate(296.55,-139.5)">
			<title>Process.10</title>
			<desc>diff --cached</desc>
			<v:custProps>
				<v:cp v:nameU="Cost" v:lbl="Cost" v:type="7" v:format="@" v:langID="1033"/>
				<v:cp v:nameU="Duration" v:lbl="Duration" v:type="2" v:langID="1033"/>
				<v:cp v:nameU="Resources" v:lbl="Resources" v:langID="1033"/>
			</v:custProps>
			<v:userDefs>
				<v:ud v:nameU="visVersion" v:val="VT0(11):26"/>
			</v:userDefs>
			<v:textBlock v:margins="rect(2,2,2,2)"/>
			<v:textRect cx="79.65" cy="603" width="159.3" height="18"/>
			<rect x="0" y="594" width="159.3" height="18" class="st9"/>
			<text x="41.13" y="607.2" class="st4" v:langID="1033"><v:paragraph v:horizAlign="1"/><v:tabList/>diff --cached</text>		</g>
		<g id="shape21-74" v:mID="21" v:groupContext="shape" transform="translate(132.75,-342)">
			<title>45 degree double</title>
			<desc>push, pop, list, apply</desc>
			<v:userDefs>
				<v:ud v:nameU="visVersion" v:val="VT0(11):26"/>
			</v:userDefs>
			<v:textBlock v:margins="rect(4,4,4,4)"/>
			<v:textRect cx="66.4875" cy="594" width="132.98" height="36"/>
			<path d="M0 594 L18 576 L18 587.88 L114.97 587.88 L114.97 576 L132.97 594 L114.97 612 L114.97 600.12 L18 600.12 L18 612
						 L0 594 Z" class="st9"/>
			<text x="30.03" y="596.4" class="st14" v:langID="1033"><v:paragraph v:horizAlign="1"/><v:tabList/>push, pop, list, apply</text>		</g>
		<g id="shape22-77" v:mID="22" v:groupContext="shape" transform="translate(-315.444,434.779) rotate(-90.2601)">
			<title>Constraint Connector.22</title>
			<v:userDefs>
				<v:ud v:nameU="visVersion" v:val="VT0(11):26"/>
			</v:userDefs>
			<path d="M0 612 L396.45 612" class="st1"/>
		</g>
	</g>
</svg>
